<svg width="640" height="384" viewBox="0 0 640 384" fill="none" xmlns="http://www.w3.org/2000/svg">
<path d="M0 64C0 28.7 28.7 0 64 0H256H304H320H576C611.3 0 640 28.7 640 64V320C640 355.3 611.3 384 576 384H320H304H256H64C28.7 384 0 355.3 0 320V64ZM320 64V320H576V64H320ZM178.3 111.9C175.1 104.7 167.9 100 160 100C152.1 100 144.9 104.7 141.7 111.9L77.7 255.9C73.2 266 77.8 277.8 87.9 282.3C98 286.8 109.8 282.2 114.3 272.1L123.2 252H196.8L205.7 272.1C210.2 282.2 222 286.7 232.1 282.3C242.2 277.9 246.7 266 242.3 255.9L178.3 111.9V111.9ZM160 169.2L179 212H141L160 169.2ZM448 100C459 100 468 109 468 120V124H512H528C539 124 548 133 548 144C548 155 539 164 528 164H526L524.4 168.5C515.5 192.9 502 215.1 484.8 233.9C485.7 234.5 486.6 235 487.5 235.5L506.4 246.8C515.9 252.5 518.9 264.8 513.3 274.2C507.7 283.6 495.3 286.7 485.9 281.1L467 269.8C462.5 267.1 458.2 264.3 453.9 261.3C443.3 268.8 432 275.3 419.9 280.7L416.3 282.3C406.2 286.8 394.4 282.2 389.9 272.1C385.4 262 390 250.2 400.1 245.7L403.7 244.1C410.1 241.2 416.3 238 422.2 234.3L410 222.1C402.2 214.3 402.2 201.6 410 193.8C417.8 186 430.5 186 438.3 193.8L452.9 208.4L453.4 208.9C465.8 195.8 475.9 180.6 483.2 163.9H448H376C365 163.9 356 154.9 356 143.9C356 132.9 365 123.9 376 123.9H428V119.9C428 108.9 437 99.9 448 99.9V100Z" fill="white"/>
</svg>
