<svg width="576" height="448" viewBox="0 0 576 448" fill="none" xmlns="http://www.w3.org/2000/svg">
<path d="M64 0C28.7 0 0 28.7 0 64V384C0 419.3 28.7 448 64 448H512C547.3 448 576 419.3 576 384V64C576 28.7 547.3 0 512 0H64ZM144 256H208C252.2 256 288 291.8 288 336C288 344.8 280.8 352 272 352H80C71.2 352 64 344.8 64 336C64 291.8 99.8 256 144 256ZM240 160C240 195.3 211.3 224 176 224C140.7 224 112 195.3 112 160C112 124.7 140.7 96 176 96C211.3 96 240 124.7 240 160ZM368 128H496C504.8 128 512 135.2 512 144C512 152.8 504.8 160 496 160H368C359.2 160 352 152.8 352 144C352 135.2 359.2 128 368 128ZM368 192H496C504.8 192 512 199.2 512 208C512 216.8 504.8 224 496 224H368C359.2 224 352 216.8 352 208C352 199.2 359.2 192 368 192ZM368 256H496C504.8 256 512 263.2 512 272C512 280.8 504.8 288 496 288H368C359.2 288 352 280.8 352 272C352 263.2 359.2 256 368 256Z" fill="white"/>
</svg>
