<svg width="480" height="512" viewBox="0 0 480 512" fill="none" xmlns="http://www.w3.org/2000/svg">
<path d="M64 0C28.7 0 0 28.7 0 64V448C0 483.3 28.7 512 64 512H352C387.3 512 416 483.3 416 448V64C416 28.7 387.3 0 352 0H64ZM176 288H240C284.2 288 320 323.8 320 368C320 376.8 312.8 384 304 384H112C103.2 384 96 376.8 96 368C96 323.8 131.8 288 176 288ZM272 192C272 227.3 243.3 256 208 256C172.7 256 144 227.3 144 192C144 156.7 172.7 128 208 128C243.3 128 272 156.7 272 192ZM480 80C480 71.2 472.8 64 464 64C455.2 64 448 71.2 448 80V144C448 152.8 455.2 160 464 160C472.8 160 480 152.8 480 144V80ZM464 192C455.2 192 448 199.2 448 208V272C448 280.8 455.2 288 464 288C472.8 288 480 280.8 480 272V208C480 199.2 472.8 192 464 192ZM480 336C480 327.2 472.8 320 464 320C455.2 320 448 327.2 448 336V400C448 408.8 455.2 416 464 416C472.8 416 480 408.8 480 400V336Z" fill="white"/>
</svg>
